<?xml version="1.0" encoding="UTF-8" standalone="no"?>
<svg
   id="svg"
   version="1.1"
   width="400"
   height="400"
   viewBox="0, 0, 400,400"
   sodipodi:docname="image2vector.svg"
   inkscape:version="1.2.2 (732a01da63, 2022-12-09)"
   xmlns:inkscape="http://www.inkscape.org/namespaces/inkscape"
   xmlns:sodipodi="http://sodipodi.sourceforge.net/DTD/sodipodi-0.dtd"
   xmlns="http://www.w3.org/2000/svg"
   xmlns:svg="http://www.w3.org/2000/svg">
  <defs
     id="defs7" />
  <sodipodi:namedview
     id="namedview5"
     pagecolor="#ffffff"
     bordercolor="#000000"
     borderopacity="0.25"
     inkscape:showpageshadow="2"
     inkscape:pageopacity="0.0"
     inkscape:pagecheckerboard="0"
     inkscape:deskcolor="#d1d1d1"
     showgrid="false"
     inkscape:zoom="2.12375"
     inkscape:cx="310.53561"
     inkscape:cy="261.56563"
     inkscape:window-width="3840"
     inkscape:window-height="2036"
     inkscape:window-x="3828"
     inkscape:window-y="-12"
     inkscape:window-maximized="1"
     inkscape:current-layer="svgg" />
  <g
     id="svgg">
    <path
       id="path0"
       d="m 140.096,35.959 c -10.319,1.863 -20.26,7.245 -26.448,14.319 -3.375,3.858 -3.487,3.913 -7.574,3.724 -16.157,-0.748 -34.98,10.412 -44.207,26.212 -13.788,23.611 -19.286208,58.095 -19.285,120.958 0.0018,93.285 16.951,133.784 57.887,138.319 4.225,0.468 4.926,0.798 6.168,2.901 11.339,19.196 36.594,26.78 66.019,19.827 51.245,-12.11 144.848,-68.92 171.218,-103.915 12.934,-17.165 17.484,-38.337 11.379,-52.948 l -2.169,-5.191 1.938,-6.687 C 364.439,160.982 345.305,132.1 290.234,95.686 224.201,52.024 170.171,30.53 140.096,35.959 m 31.347,57.831 c 66.975,12.903 140.207,75.306 129.358,110.229 -14.829,47.741 -126.342,115.252 -165.117,99.963 -52.299,-20.621 -52.022,-192.041 0.339,-209.857 8.723,-2.967 21.147,-3.085 35.42,-0.335 m -9.945,51.545 c -27.697,6.978 -31.908,89.66 -5.361,105.266 20.499,12.051 87.461,-29.819 87.172,-54.507 -0.257,-22.005 -56.769,-57.067 -81.811,-50.759"
       stroke="none"
       fill="#000000"
       fill-rule="evenodd"
       sodipodi:nodetypes="ccccsscccsccccccccccccc"
       style="fill:#9a3423;fill-opacity:1" />
  </g>
</svg>
